<?xml version="1.0" standalone="no"?>
<!DOCTYPE svg PUBLIC "-//W3C//DTD SVG 20010904//EN"
 "http://www.w3.org/TR/2001/REC-SVG-20010904/DTD/svg10.dtd">
<svg version="1.0" xmlns="http://www.w3.org/2000/svg"
 width="700.000000pt" height="700.000000pt" viewBox="0 0 700.000000 700.000000"
 preserveAspectRatio="xMidYMid meet">
<metadata>
Created by potrace 1.11, written by Peter Selinger 2001-2013
</metadata>
<g transform="translate(0.000000,700.000000) scale(0.100000,-0.100000)"
fill="#000000" stroke="none">
<path d="M2210 6425 c-25 -6 -58 -19 -75 -28 -56 -29 -119 -111 -131 -170 -2
-12 -6 -33 -9 -47 -7 -31 -7 -1376 0 -1409 25 -130 100 -214 218 -242 61 -14
220 -18 296 -7 96 15 169 60 214 130 42 67 48 125 47 508 0 201 0 368 0 371 0
3 -87 6 -192 6 l-193 0 2 -86 c1 -47 2 -94 2 -103 1 -14 12 -16 79 -14 42 2
83 1 90 -2 10 -3 12 -65 12 -279 l-1 -275 -33 -36 -33 -36 -94 -1 c-52 -2
-103 1 -114 5 -26 10 -59 40 -73 66 -18 33 -15 1359 3 1393 27 54 51 66 133
68 102 2 142 -11 172 -53 22 -33 23 -44 24 -192 l2 -157 99 -3 c61 -2 101 1
105 8 13 21 2 343 -13 393 -32 100 -99 165 -200 191 -65 17 -275 18 -337 1z"/>
<path d="M3640 6324 l0 -102 143 1 142 0 1 -844 1 -844 109 -3 109 -3 0 841
c0 527 3 844 9 847 5 4 67 6 137 6 86 0 129 3 131 11 2 6 3 52 3 101 l0 90
-393 1 -392 0 0 -102z"/>
<path d="M3170 5993 c-103 -26 -168 -88 -199 -187 -15 -49 -17 -110 -15 -548
1 -271 4 -506 8 -521 14 -58 50 -119 90 -151 67 -54 112 -67 242 -70 205 -6
319 64 359 218 12 48 15 141 14 520 0 470 -5 538 -39 607 -26 51 -93 105 -154
125 -66 22 -232 26 -306 7z m252 -198 c15 -11 32 -33 38 -50 7 -20 11 -188 10
-494 0 -509 2 -492 -60 -530 -21 -12 -48 -17 -99 -16 -80 1 -110 14 -136 58
-17 28 -18 63 -18 501 0 353 3 477 12 494 23 44 66 60 150 59 59 -2 82 -7 103
-22z"/>
<path d="M4652 5994 c-98 -25 -153 -70 -194 -159 -23 -50 -23 -52 -25 -550 -3
-544 -2 -563 53 -648 52 -83 157 -124 307 -121 98 2 153 12 201 36 78 40 129
114 144 210 8 53 8 980 -1 1008 -2 8 -8 29 -12 45 -21 78 -84 140 -170 170
-65 23 -231 27 -303 9z m244 -192 c12 -6 30 -24 40 -39 17 -26 18 -57 19 -496
1 -507 1 -508 -53 -543 -34 -22 -156 -27 -195 -7 -15 8 -36 28 -47 45 -18 30
-19 58 -19 496 0 512 0 516 59 544 38 19 162 19 196 0z"/>
<path d="M4913 4335 c-47 -20 -63 -60 -63 -155 0 -112 13 -136 108 -209 44
-33 83 -69 86 -78 8 -31 1 -132 -10 -143 -6 -6 -27 -10 -45 -8 l-34 3 -3 88
-3 88 -52 -3 -52 -3 1 -104 0 -104 32 -28 c34 -30 41 -32 136 -31 62 1 97 17
117 54 17 31 19 196 4 234 -8 20 -43 54 -92 91 -43 33 -83 67 -90 74 -13 17
-14 120 -1 137 16 19 66 15 78 -7 5 -11 10 -47 10 -80 l0 -61 55 0 55 0 1 43
c3 145 -8 178 -66 203 -43 18 -130 17 -172 -1z"/>
<path d="M2003 3998 l2 -343 43 -1 c32 0 42 3 43 15 0 9 1 119 1 244 0 125 2
227 4 225 1 -2 15 -84 29 -183 28 -192 32 -222 41 -272 6 -30 8 -31 52 -30 52
2 54 7 67 114 3 31 8 60 10 63 1 3 6 30 9 60 4 30 9 70 13 89 6 35 9 61 12 94
0 9 4 17 9 17 4 0 7 -98 7 -217 l0 -218 53 0 52 -1 0 343 0 343 -80 0 c-44 0
-81 -3 -81 -7 -4 -20 -16 -116 -23 -178 -10 -79 -26 -192 -31 -215 -2 -8 -4
-26 -4 -39 -2 -42 -9 -19 -20 64 -6 44 -13 91 -16 105 -2 14 -9 61 -15 105 -7
44 -14 87 -15 95 -2 8 -4 27 -4 43 l-1 27 -79 0 -79 0 1 -342z"/>
<path d="M2589 4328 c0 -7 -2 -22 -4 -33 -6 -29 -55 -372 -62 -425 -3 -25 -11
-81 -18 -125 -14 -90 -11 -95 45 -92 34 2 35 3 44 55 l10 52 53 0 c43 0 53 -3
54 -17 1 -31 10 -77 15 -83 3 -3 28 -5 55 -6 41 -1 49 2 45 15 -3 9 -7 41 -11
72 -3 31 -8 67 -10 80 -3 13 -16 105 -30 204 -14 99 -27 189 -29 200 -2 11 -7
41 -10 68 l-7 47 -70 0 c-48 0 -69 -4 -70 -12z m74 -213 c3 -27 9 -77 13 -110
3 -33 10 -81 14 -107 l7 -48 -43 0 c-44 0 -44 0 -39 33 2 17 7 55 10 82 3 28
8 68 12 90 6 38 10 73 12 104 2 27 9 6 14 -44z"/>
<path d="M2870 3997 l0 -346 23 -3 c12 -2 36 -1 52 0 l31 4 -1 126 c-1 70 0
132 3 139 4 12 68 11 80 -2 4 -3 7 -61 8 -128 1 -67 2 -125 3 -128 1 -4 24 -7
51 -6 l50 0 0 139 c0 135 -1 140 -25 162 l-24 22 22 22 c20 20 22 34 25 146
l4 124 -30 33 -30 34 -121 3 -121 4 0 -345z m191 246 c1 -5 3 -47 4 -95 3
-100 -4 -116 -55 -120 l-35 -3 -1 100 c0 55 2 106 4 113 4 13 81 17 83 5z"/>
<path d="M3234 3996 l0 -344 53 1 53 2 0 165 1 165 34 -110 c19 -60 42 -135
52 -165 l18 -55 53 -1 c41 0 52 3 51 15 0 9 -24 88 -53 175 l-52 160 52 145
c28 80 54 156 58 169 7 21 5 22 -47 22 l-55 0 -48 -137 c-26 -76 -51 -147 -55
-158 -4 -11 -8 51 -8 138 l-1 157 -53 0 -53 0 0 -344z"/>
<path d="M3599 4333 c-1 -10 -1 -653 0 -675 1 -16 14 -18 119 -18 l119 0 -1
48 -1 47 -63 0 c-47 0 -63 4 -66 15 -3 8 -4 57 -4 108 1 88 3 93 22 91 12 0
40 -1 64 0 l42 1 0 48 0 49 -63 -1 -63 -2 -1 93 c-1 56 3 96 10 100 5 3 34 6
64 5 l53 0 0 49 0 49 -115 0 c-63 0 -115 -3 -116 -7z"/>
<path d="M3859 4333 c-1 -5 -2 -25 -3 -46 l-1 -37 48 0 c30 0 47 -4 48 -12 1
-7 2 -141 3 -298 l1 -285 53 -3 52 -3 0 295 0 296 28 1 c15 1 35 1 45 0 14 -2
17 6 17 48 l0 51 -145 0 c-80 0 -145 -3 -146 -7z"/>
<path d="M4193 3990 l-1 -350 119 0 119 0 0 49 0 50 -61 0 c-33 0 -62 1 -64 3
-2 2 -5 48 -6 103 l-2 100 58 3 c32 1 61 5 64 8 10 10 7 83 -4 87 -5 3 -33 4
-62 3 l-52 -2 -3 89 c-2 49 0 93 3 99 3 5 32 10 65 11 l59 2 0 45 0 45 -116 3
-116 3 0 -351z"/>
<path d="M4489 4328 c-3 -35 -4 -664 -2 -673 3 -10 90 -11 100 -1 3 2 4 65 4
139 l-2 134 35 1 c19 1 39 -5 46 -13 7 -9 12 -60 13 -137 l2 -123 50 0 50 0 3
123 c2 97 -1 130 -14 157 -9 19 -20 35 -25 35 -5 0 3 17 17 38 24 35 25 42 22
154 -3 113 -4 119 -31 145 -26 27 -32 28 -147 31 -95 3 -120 1 -121 -10z m189
-97 c4 -11 6 -57 6 -102 -1 -91 -11 -107 -61 -104 l-28 1 -3 112 -3 112 41 0
c31 0 42 -5 48 -19z"/>
<path d="M2315 3489 c-89 -9 -170 -39 -223 -84 -49 -43 -98 -138 -110 -215 -4
-30 -7 -516 -7 -1080 1 -816 4 -1035 15 -1075 50 -191 182 -269 444 -264 167
4 262 34 333 108 43 45 82 139 90 221 13 125 7 2057 -6 2114 -30 128 -95 205
-211 250 -62 24 -210 35 -325 25z"/>
<path d="M4657 3494 c-1 -1 -31 -4 -67 -7 -158 -12 -253 -77 -309 -210 l-26
-62 0 -1085 0 -1085 23 -56 c63 -157 193 -222 430 -218 217 3 334 68 394 218
l23 56 2 1070 c2 895 1 1078 -11 1116 -54 177 -165 253 -384 261 -40 2 -74 3
-75 2z"/>
<path d="M3517 3264 c-1 -1 -31 -4 -66 -8 -191 -17 -301 -119 -329 -301 -3
-22 -6 -506 -5 -1075 0 -1020 0 -1036 21 -1098 36 -112 100 -179 207 -218 59
-21 305 -30 370 -13 107 27 180 76 221 145 60 102 57 45 59 1172 1 568 -2
1058 -6 1089 -10 76 -60 174 -111 218 -61 51 -135 76 -256 84 -57 3 -104 6
-105 5z"/>
</g>
</svg>
